Coordinates
version=1
nRows=14
nColumns=42
inDegrees=yes

Units are S.I. units (second, meters, Newtons, ...)
If the header above contains a line with 'inDegrees', this indicates whether rotational values are in degrees (yes) or radians (no).

endheader
time	pelvis_tilt	pelvis_list	pelvis_rotation	pelvis_tx	pelvis_ty	pelvis_tz	hip_flexion_r	hip_adduction_r	hip_rotation_r	knee_angle_r	knee_angle_r_beta	ankle_angle_r	subtalar_angle_r	mtp_angle_r	hip_flexion_l	hip_adduction_l	hip_rotation_l	knee_angle_l	knee_angle_l_beta	ankle_angle_l	subtalar_angle_l	mtp_angle_l	lumbar_extension	lumbar_bending	lumbar_rotation	sh_tx_r	sh_ty_r	sh_tz_r	sh_plane_elev_r	sh_elev_r	sh_axial_rot_r	elbow_flex_r	pro_sup_r	sh_tx_l	sh_ty_l	sh_tz_l	sh_plane_elev_l	sh_elev_l	sh_axial_rot_l	elbow_flex_l	pro_sup_l
      2.20338980	     -6.10487753	     -0.28778539	     -2.07799536	      0.29766382	      0.93284212	     -0.03351363	      5.33685269	     -5.38749583	     -3.35133770	      0.44742107	      0.00780897	      2.97045862	      5.16781748	     -7.49999926	      3.60170124	     -4.65829421	     -4.62060408	      0.33536155	      0.00585316	      8.01253774	      3.33678679	     -7.49999926	      3.47623147	     -7.63933275	      2.12669103	      0.01467728	      0.02451736	     -0.00669486	    -17.86298229	     78.63925746	    -97.27476269	     97.42688241	     37.77166995	      0.02669062	      0.00797051	     -0.00692451	     16.35426145	     11.42505268	     -6.45840753	     31.89899417	     62.94833879
      2.22033900	     -6.17978135	     -0.26538807	     -2.13501440	      0.29759029	      0.93293715	     -0.03329741	      5.44188786	     -5.39395224	     -3.16556763	      0.46682044	      0.00814755	      2.80465606	      4.79993120	     -7.49999937	      3.67743561	     -4.65220429	     -4.52846309	      0.33270820	      0.00580685	      8.06871205	      3.27360719	     -7.49999937	      3.56299006	     -7.71754589	      2.06049996	      0.01344937	      0.02483699	     -0.00665001	    -17.39040485	     78.11871507	    -98.38291780	     97.36516543	     39.67896040	      0.02673843	      0.00808163	     -0.00691615	     16.38588446	     11.32956356	     -6.71974575	     31.83648169	     62.51447242
      2.23728810	     -6.11769856	     -0.31468681	     -2.10092124	      0.29786396	      0.93299224	     -0.03346932	      5.31229296	     -5.32705942	     -3.38657495	      0.47086051	      0.00821807	      3.08182033	      5.34433115	     -7.49999951	      3.61270504	     -4.72528257	     -4.45606086	      0.33474650	      0.00584243	      8.06320771	      3.32062077	     -7.49999951	      3.53629579	     -7.53794617	      1.86136429	      0.01571527	      0.02564498	     -0.00659636	    -17.59827202	     77.80157382	    -98.26169085	     98.25279288	     35.57775016	      0.02774731	      0.00778614	     -0.00683939	     14.36552930	     10.99252314	     -5.88286847	     32.11873322	     63.84909541
      2.25423730	     -6.13330168	     -0.33419479	     -2.09737560	      0.29773134	      0.93310852	     -0.03330439	      5.29751830	     -5.27847795	     -3.23214260	      0.48428088	      0.00845230	      3.04745300	      5.12868437	     -7.49999956	      3.62058884	     -4.74581464	     -4.37883966	      0.33552591	      0.00585603	      8.11317705	      3.22638636	     -7.49999956	      3.52959278	     -7.44772055	      1.76532914	      0.01503729	      0.02566751	     -0.00659472	    -16.99699754	     77.44735272	    -99.13315554	     98.63063919	     36.95311316	      0.02733049	      0.00797516	     -0.00680552	     14.43809462	     10.97465108	     -6.16388996	     32.16191094	     63.57979520
      2.27118640	     -6.40434779	     -0.31352035	     -2.06889547	      0.29799007	      0.93578937	     -0.03368896	      5.55094967	     -5.26562580	     -3.08229888	      0.49165271	      0.00858096	      3.11869981	      5.03481816	     -7.49999958	      3.90971807	     -4.72548015	     -4.35803072	      0.33921127	      0.00592035	      8.17603182	      3.33084401	     -7.49999958	      3.82838295	     -7.52007173	      1.38158717	      0.01524388	      0.02516902	     -0.00673190	    -16.49857894	     76.99212255	    -99.65581726	     98.79517183	     37.47368290	      0.02424069	      0.00738205	     -0.00681987	     14.81217112	     11.18265696	     -6.26483910	     32.59277776	     63.45553849
      2.28813560	     -6.11119301	     -0.38451539	     -2.04147455	      0.29764404	      0.93300155	     -0.03342303	      5.19953023	     -5.16514247	     -3.19347022	      0.46643465	      0.00814082	      3.04962801	      5.11477883	     -7.49999958	      3.57807691	     -4.74615329	     -4.37476928	      0.34373619	      0.00599933	      8.24270906	      3.27524429	     -7.49999958	      3.50307422	     -7.37134312	      1.55968842	      0.01569587	      0.02578233	     -0.00669546	    -16.91494601	     76.68553597	   -100.03785137	     99.52838111	     37.23716802	      0.02771558	      0.00844949	     -0.00678962	     14.36444069	     10.86484965	     -6.50508239	     31.98224615	     63.47759217
      2.30508470	     -6.19245717	     -0.41065574	     -2.03407265	      0.29776767	      0.93291575	     -0.03358056	      5.27972359	     -5.09287459	     -3.13220741	      0.45803194	      0.00799417	      2.85534275	      4.81661536	     -7.49999962	      3.66139251	     -4.76041791	     -4.37475722	      0.34617863	      0.00604196	      8.20861151	      3.13104603	     -7.49999962	      3.59258362	     -7.36919060	      1.51697608	      0.01467521	      0.02568365	     -0.00669746	    -16.56541853	     76.42038326	   -100.49217891	     99.82111642	     38.30658373	      0.02746301	      0.00850625	     -0.00684464	     14.55394598	     10.84064212	     -6.73626949	     32.09102013	     63.19572467
      2.32203390	     -6.14265510	     -0.44652670	     -1.98674036	      0.29758866	      0.93299038	     -0.03353758	      5.23829122	     -5.04458805	     -3.16668234	      0.45194867	      0.00788799	      2.93158873	      4.89708799	     -7.49999964	      3.62312479	     -4.78559546	     -4.26218858	      0.34618345	      0.00604204	      8.24656050	      3.05556635	     -7.49999964	      3.50184224	     -7.32667389	      1.35376531	      0.01441340	      0.02681316	     -0.00670101	    -16.30466008	     76.06450717	   -100.73127141	    100.38861191	     38.76375250	      0.02726353	      0.00891269	     -0.00682051	     14.42109784	     10.95504161	     -7.15108557	     32.25928384	     63.02311240
      2.33898300	     -6.12922902	     -0.51379335	     -2.02423049	      0.29762330	      0.93294455	     -0.03380708	      5.24531594	     -4.97667057	     -3.03545814	      0.45443245	      0.00793134	      2.90632512	      4.80296172	     -7.49999967	      3.58420183	     -4.82623986	     -4.27513580	      0.34648760	      0.00604735	      8.40366173	      3.01607694	     -7.49999967	      3.51602583	     -7.28016679	      1.37152522	      0.01423396	      0.02712291	     -0.00667955	    -16.11886027	     76.01183944	   -100.85541528	    100.46441953	     39.34916509	      0.02750052	      0.00935235	     -0.00682145	     14.16774990	     10.95225862	     -7.51612643	     32.50842624	     62.82945220
      2.35593220	     -6.15353408	     -0.53767277	     -2.00978627	      0.30143805	      0.93295126	     -0.03833508	      5.21715385	     -5.05480628	     -3.02174699	      0.47265589	      0.00824940	      2.91912471	      4.82778684	     -7.49999967	      3.55610537	     -4.77764088	     -4.29776604	      0.33645668	      0.00587228	      8.47327507	      3.00679094	     -7.49999967	      3.52463457	     -7.19605714	      1.33040566	      0.01331589	      0.02761278	     -0.00657523	    -16.14427717	     75.97986886	   -100.83616723	    100.43811781	     39.31566020	      0.02667693	      0.00922651	     -0.00699223	     14.15471404	     10.78303034	     -7.51635419	     32.51670833	     62.83539734
      2.37288140	     -6.04711615	     -0.59955655	     -2.07792698	      0.30147103	      0.93296279	     -0.03853215	      5.04771745	     -5.08148599	     -3.01948016	      0.46966573	      0.00819721	      2.92938854	      4.94599665	     -7.49999969	      3.35815408	     -4.74415702	     -4.35976060	      0.34013026	      0.00593639	      8.76060324	      2.95727517	     -7.49999969	      3.54269528	     -6.99120170	      1.40766766	      0.01335613	      0.02802437	     -0.00658612	    -15.98044830	     76.19715327	   -100.91487189	    100.28726505	     39.66428666	      0.02799217	      0.00919686	     -0.00682654	     13.54528031	     10.26734513	     -8.04504456	     32.50961476	     62.66860638
      2.38983050	     -5.99298085	     -0.62474645	     -2.10864277	      0.30134958	      0.93299362	     -0.03835391	      4.93680108	     -5.13706151	     -3.08384561	      0.48484767	      0.00846219	      3.03117227	      5.13237535	     -7.49999970	      3.22316191	     -4.67836810	     -4.41132589	      0.33340526	      0.00581902	      8.94758498	      2.90945066	     -7.49999970	      3.55495732	     -6.84954036	      1.36013484	      0.01353211	      0.02807198	     -0.00658114	    -15.85598344	     76.34094386	   -100.84759663	    100.22251921	     39.80420270	      0.02841396	      0.00878122	     -0.00682064	     13.10661870	      9.97117669	     -8.42522272	     32.54583515	     62.57106322
      2.40677970	     -6.06827220	     -0.66061536	     -2.20263797	      0.29755512	      0.93277063	     -0.03372040	      5.04859723	     -5.06667567	     -3.00706957	      0.49106106	      0.00857063	      3.23037674	      5.31606421	     -7.49999970	      3.25356436	     -4.70449853	     -4.41938283	      0.32881772	      0.00573895	      9.24958148	      2.92841803	     -7.49999970	      3.67754499	     -6.87421184	      1.44660355	      0.01371070	      0.02792091	     -0.00657982	    -15.74766908	     76.31032087	   -100.44901407	    100.31674154	     39.45859708	      0.02922357	      0.00911709	     -0.00685125	     12.62235384	      9.93471873	     -8.55804094	     32.84638214	     62.64132902
      2.42372880	     -6.09974764	     -0.71209154	     -2.20679745	      0.29745287	      0.93274288	     -0.03366206	      5.10284502	     -4.97125641	     -3.03849933	      0.49313780	      0.00860688	      3.28621717	      5.42342458	     -7.49999979	      3.29026602	     -4.76585162	     -4.51679634	      0.32659538	      0.00570016	      9.30432743	      3.05036088	     -7.49999979	      3.72998721	     -6.93807075	     -0.19445634	      0.01807786	      0.02822813	     -0.00657380	    -13.72508501	     75.89720791	   -100.13337013	    101.07153816	     34.73272561	      0.02955664	      0.00899276	     -0.00648186	      0.11281530	      8.46160872	     -4.06662050	     34.80987813	     69.57940577
